<?xml version="1.0" encoding="UTF-8" standalone="no"?>
<svg
   xmlns:dc="http://purl.org/dc/elements/1.1/"
   xmlns:cc="http://creativecommons.org/ns#"
   xmlns:rdf="http://www.w3.org/1999/02/22-rdf-syntax-ns#"
   xmlns:svg="http://www.w3.org/2000/svg"
   xmlns="http://www.w3.org/2000/svg"
   xmlns:inkscape="http://www.inkscape.org/namespaces/inkscape"
   width="2000"
   height="1000"
   id="svg2"
   version="1.1"
   inkscape:version="0.48.2 r9819">
  <g
     inkscape:label="Layer 1"
     inkscape:groupmode="layer"
     id="layer1">
    <g
       id="functionCall">
      <path
         d="m 171.9866,167.68585 0,2.98828 -3.4375,0 c -1.28907,3e-5 -2.18751,0.26045 -2.69531,0.78125 -0.4948,0.52086 -0.7422,1.45836 -0.74219,2.8125 l 0,1.9336 5.91797,0 0,2.79297 -5.91797,0 0,19.08203 -3.61328,0 0,-19.08203 -3.4375,0 0,-2.79297 3.4375,0 0,-1.52344 c 0,-2.43487 0.5664,-4.2057 1.69922,-5.3125 1.13281,-1.11976 2.92968,-1.67966 5.39063,-1.67969 l 3.39843,0"
         id="f"
         inkscape:connector-curvature="0"
         style="font-size:40px;font-style:normal;font-weight:normal;line-height:125%;letter-spacing:0px;word-spacing:0px;fill:#000000;fill-opacity:1;stroke:none;font-family:Sans" />
      <path
         d="m 174.60379,189.44366 0,-13.24218 3.59375,0 0,13.10547 c -1e-5,2.07031 0.40364,3.6263 1.21094,4.66796 0.80728,1.02865 2.01822,1.54298 3.63281,1.54297 1.94009,1e-5 3.47004,-0.61848 4.58984,-1.85547 1.1328,-1.23697 1.6992,-2.92317 1.69922,-5.05859 l 0,-12.40234 3.59375,0 0,21.875 -3.59375,0 0,-3.35938 c -0.87241,1.32813 -1.88803,2.31771 -3.04687,2.96875 -1.14585,0.63802 -2.48048,0.95703 -4.00391,0.95703 -2.51303,0 -4.42058,-0.78125 -5.72265,-2.34375 -1.30209,-1.56249 -1.95313,-3.84765 -1.95313,-6.85547"
         id="u"
         inkscape:connector-curvature="0"
         style="font-size:40px;font-style:normal;font-weight:normal;line-height:125%;letter-spacing:0px;word-spacing:0px;fill:#000000;fill-opacity:1;stroke:none;font-family:Sans" />
      <path
         d="m 218.5491,184.87335 0,13.20313 -3.59375,0 0,-13.08594 c -2e-5,-2.0703 -0.40366,-3.61978 -1.21093,-4.64844 -0.80731,-1.02863 -2.01825,-1.54295 -3.63282,-1.54297 -1.94011,2e-5 -3.47006,0.61851 -4.58984,1.85547 -1.1198,1.237 -1.6797,2.92319 -1.67969,5.0586 l 0,12.36328 -3.61328,0 0,-21.875 3.61328,0 0,3.39843 c 0.85937,-1.31508 1.86848,-2.29815 3.02735,-2.94921 1.17186,-0.65102 2.51951,-0.97654 4.04296,-0.97657 2.51301,3e-5 4.41405,0.78127 5.70313,2.34375 1.28904,1.5495 1.93357,3.83465 1.93359,6.85547"
         id="path3030"
         inkscape:connector-curvature="0"
         style="font-size:40px;font-style:normal;font-weight:normal;line-height:125%;letter-spacing:0px;word-spacing:0px;fill:#000000;fill-opacity:1;stroke:none;font-family:Sans" />
      <path
         d="m 241.49832,177.04132 0,3.35938 c -1.01564,-0.55988 -2.03778,-0.97655 -3.0664,-1.25 -1.01565,-0.28644 -2.04429,-0.42967 -3.08594,-0.42969 -2.33074,2e-5 -4.14064,0.7422 -5.42969,2.22656 -1.28907,1.47137 -1.9336,3.54168 -1.93359,6.21094 -1e-5,2.66928 0.64452,4.7461 1.93359,6.23047 1.28905,1.47135 3.09895,2.20703 5.42969,2.20703 1.04165,0 2.07029,-0.13672 3.08594,-0.41016 1.02862,-0.28645 2.05076,-0.70963 3.0664,-1.26953 l 0,3.32031 c -1.00262,0.46875 -2.04429,0.82032 -3.125,1.05469 -1.06772,0.23438 -2.20704,0.35156 -3.41797,0.35156 -3.29428,0 -5.91146,-1.03515 -7.85156,-3.10547 -1.94011,-2.0703 -2.91016,-4.86327 -2.91016,-8.3789 0,-3.5677 0.97656,-6.37368 2.92969,-8.41797 1.96614,-2.04425 4.65494,-3.06638 8.06641,-3.06641 1.10675,3e-5 2.18748,0.11721 3.24219,0.35157 1.05467,0.22137 2.0768,0.55991 3.0664,1.01562"
         id="c"
         inkscape:connector-curvature="0"
         style="font-size:40px;font-style:normal;font-weight:normal;line-height:125%;letter-spacing:0px;word-spacing:0px;fill:#000000;fill-opacity:1;stroke:none;font-family:Sans" />
      <path
         d="m 251.34207,169.99054 0,6.21094 7.40235,0 0,2.79297 -7.40235,0 0,11.875 c -1e-5,1.78386 0.24088,2.92969 0.72266,3.4375 0.49478,0.50781 1.49087,0.76172 2.98828,0.76171 l 3.69141,0 0,3.00782 -3.69141,0 c -2.77345,0 -4.68751,-0.51433 -5.74219,-1.54297 -1.05469,-1.04167 -1.58203,-2.92968 -1.58203,-5.66406 l 0,-11.875 -2.63672,0 0,-2.79297 2.63672,0 0,-6.21094 3.61328,0"
         id="t"
         inkscape:connector-curvature="0"
         style="font-size:40px;font-style:normal;font-weight:normal;line-height:125%;letter-spacing:0px;word-spacing:0px;fill:#000000;fill-opacity:1;stroke:none;font-family:Sans" />
      <path
         d="m 263.49051,176.20148 3.59375,0 0,21.875 -3.59375,0 0,-21.875 m 0,-8.51563 3.59375,0 0,4.55078 -3.59375,0 0,-4.55078"
         id="i"
         inkscape:connector-curvature="0"
         style="font-size:40px;font-style:normal;font-weight:normal;line-height:125%;letter-spacing:0px;word-spacing:0px;fill:#000000;fill-opacity:1;stroke:none;font-family:Sans" />
      <path
         d="m 283.06082,178.72101 c -1.92709,2e-5 -3.45053,0.75523 -4.57031,2.26562 -1.1198,1.49741 -1.67969,3.5547 -1.67969,6.17188 0,2.61719 0.55338,4.68099 1.66016,6.1914 1.11978,1.4974 2.64973,2.2461 4.58984,2.2461 1.91405,0 3.43098,-0.75521 4.55078,-2.26563 1.11978,-1.51041 1.67967,-3.5677 1.67969,-6.17187 -2e-5,-2.59113 -0.55991,-4.64191 -1.67969,-6.15235 -1.1198,-1.52341 -2.63673,-2.28513 -4.55078,-2.28515 m 0,-3.04688 c 3.12499,3e-5 5.57941,1.01565 7.36328,3.04688 1.78384,2.03127 2.67576,4.84376 2.67578,8.4375 -2e-5,3.58073 -0.89194,6.39323 -2.67578,8.4375 -1.78387,2.03125 -4.23829,3.04687 -7.36328,3.04687 -3.13803,0 -5.59896,-1.01562 -7.38281,-3.04687 -1.77084,-2.04427 -2.65625,-4.85677 -2.65625,-8.4375 0,-3.59374 0.88541,-6.40623 2.65625,-8.4375 1.78385,-2.03123 4.24478,-3.04685 7.38281,-3.04688"
         id="o"
         inkscape:connector-curvature="0"
         style="font-size:40px;font-style:normal;font-weight:normal;line-height:125%;letter-spacing:0px;word-spacing:0px;fill:#000000;fill-opacity:1;stroke:none;font-family:Sans" />
      <path
         d="m 317.22098,184.87335 0,13.20313 -3.59375,0 0,-13.08594 c -2e-5,-2.0703 -0.40367,-3.61978 -1.21094,-4.64844 -0.80731,-1.02863 -2.01824,-1.54295 -3.63281,-1.54297 -1.94012,2e-5 -3.47006,0.61851 -4.58985,1.85547 -1.1198,1.237 -1.67969,2.92319 -1.67968,5.0586 l 0,12.36328 -3.61328,0 0,-21.875 3.61328,0 0,3.39843 c 0.85936,-1.31508 1.86848,-2.29815 3.02734,-2.94921 1.17186,-0.65102 2.51952,-0.97654 4.04297,-0.97657 2.513,3e-5 4.41404,0.78127 5.70312,2.34375 1.28905,1.5495 1.93358,3.83465 1.9336,6.85547"
         id="n"
         inkscape:connector-curvature="0"
         style="font-size:40px;font-style:normal;font-weight:normal;line-height:125%;letter-spacing:0px;word-spacing:0px;fill:#000000;fill-opacity:1;stroke:none;font-family:Sans" />
      <path
         d="m 346.4202,171.16241 0,4.16016 c -1.32815,-1.23695 -2.74742,-2.16143 -4.25782,-2.77344 -1.49741,-0.61195 -3.09246,-0.91794 -4.78515,-0.91797 -3.33335,3e-5 -5.88543,1.02217 -7.65625,3.06641 -1.77084,2.03127 -2.65626,4.97398 -2.65625,8.82813 -10e-6,3.84115 0.88541,6.78386 2.65625,8.82812 1.77082,2.03125 4.3229,3.04688 7.65625,3.04688 1.69269,0 3.28774,-0.30599 4.78515,-0.91797 1.5104,-0.61198 2.92967,-1.53646 4.25782,-2.77344 l 0,4.12109 c -1.38024,0.9375 -2.84508,1.64063 -4.39453,2.10938 -1.53648,0.46875 -3.16409,0.70312 -4.88282,0.70312 -4.41407,0 -7.89063,-1.34765 -10.42968,-4.04297 -2.53907,-2.70832 -3.8086,-6.39973 -3.8086,-11.07421 0,-4.68748 1.26953,-8.37889 3.8086,-11.07422 2.53905,-2.70831 6.01561,-4.06247 10.42968,-4.0625 1.74478,3e-5 3.3854,0.2344 4.92188,0.70312 1.54945,0.45576 3.00128,1.14586 4.35547,2.07031"
         style="font-size:40px;font-style:normal;font-weight:normal;line-height:125%;letter-spacing:0px;word-spacing:0px;fill:#000000;fill-opacity:1;stroke:none;font-family:Sans"
         id="path3006"
         inkscape:connector-curvature="0" />
      <path
         d="m 362.33817,187.08038 c -2.90366,1e-5 -4.91538,0.33205 -6.03516,0.9961 -1.1198,0.66407 -1.67969,1.79688 -1.67969,3.39843 0,1.27605 0.41666,2.29168 1.25,3.04688 0.84635,0.74219 1.99218,1.11328 3.4375,1.11328 1.99218,0 3.58723,-0.70312 4.78516,-2.10937 1.21092,-1.41927 1.81639,-3.30078 1.8164,-5.64454 l 0,-0.80078 -3.57421,0 m 7.16796,-1.48437 0,12.48047 -3.59375,0 0,-3.32032 c -0.82032,1.32813 -1.84246,2.3112 -3.0664,2.94922 -1.22397,0.625 -2.72137,0.9375 -4.49219,0.9375 -2.23959,0 -4.02344,-0.625 -5.35156,-1.875 -1.31511,-1.26301 -1.97266,-2.94921 -1.97266,-5.05859 0,-2.46093 0.82031,-4.3164 2.46094,-5.56641 1.65364,-1.24998 4.11457,-1.87498 7.38281,-1.875 l 5.03906,0 0,-0.35156 c -10e-6,-1.65363 -0.54689,-2.92967 -1.64062,-3.82812 -1.08074,-0.91144 -2.60418,-1.36717 -4.57031,-1.36719 -1.25001,2e-5 -2.46746,0.14976 -3.65235,0.44922 -1.1849,0.29949 -2.32422,0.74871 -3.41797,1.34765 l 0,-3.32031 c 1.3151,-0.50779 2.59114,-0.88539 3.82813,-1.13281 1.23697,-0.2604 2.4414,-0.3906 3.61328,-0.39063 3.16405,3e-5 5.52733,0.82034 7.08984,2.46094 1.56248,1.64064 2.34373,4.12762 2.34375,7.46094"
         style="font-size:40px;font-style:normal;font-weight:normal;line-height:125%;letter-spacing:0px;word-spacing:0px;fill:#000000;fill-opacity:1;stroke:none;font-family:Sans"
         id="path3008"
         inkscape:connector-curvature="0" />
      <path
         d="m 376.92801,167.68585 3.59375,0 0,30.39063 -3.59375,0 0,-30.39063"
         style="font-size:40px;font-style:normal;font-weight:normal;line-height:125%;letter-spacing:0px;word-spacing:0px;fill:#000000;fill-opacity:1;stroke:none;font-family:Sans"
         id="path3010"
         inkscape:connector-curvature="0" />
      <path
         d="m 388.02176,167.68585 3.59375,0 0,30.39063 -3.59375,0 0,-30.39063"
         style="font-size:40px;font-style:normal;font-weight:normal;line-height:125%;letter-spacing:0px;word-spacing:0px;fill:#000000;fill-opacity:1;stroke:none;font-family:Sans"
         id="path3012"
         inkscape:connector-curvature="0" />
    </g>
    <path
       inkscape:connector-curvature="0"
       id="("
       style="font-size:40px;font-style:normal;font-weight:normal;line-height:125%;letter-spacing:0px;word-spacing:0px;fill:#000000;fill-opacity:1;stroke:none;font-family:Sans"
       d="m 407.74832,167.72491 c -1.7448,2.99482 -3.04037,5.95706 -3.88672,8.88672 -0.84636,2.92971 -1.26954,5.89846 -1.26953,8.90625 -10e-6,3.00783 0.42317,5.98959 1.26953,8.94532 0.85937,2.9427 2.15494,5.90494 3.88672,8.88671 l -3.125,0 c -1.95313,-3.05989 -3.41797,-6.0677 -4.39453,-9.02343 -0.96355,-2.95573 -1.44532,-5.89192 -1.44531,-8.8086 -10e-6,-2.90363 0.48176,-5.8268 1.44531,-8.76953 0.96354,-2.94268 2.42838,-5.95049 4.39453,-9.02344 l 3.125,0">
      <animateTransform attributeName="transform" type="translate" begin="2" dur="1s" from="0 0" to="-255 0" fill="freeze"/>
    </path>
    <path
       inkscape:connector-curvature="0"
       id="a"
       style="font-size:40px;font-style:normal;font-weight:normal;line-height:125%;letter-spacing:0px;word-spacing:0px;fill:#000000;fill-opacity:1;stroke:none;font-family:Sans"
       d="m 424.68192,187.08038 c -2.90366,1e-5 -4.91538,0.33205 -6.03516,0.9961 -1.1198,0.66407 -1.67969,1.79688 -1.67969,3.39843 0,1.27605 0.41666,2.29168 1.25,3.04688 0.84635,0.74219 1.99218,1.11328 3.4375,1.11328 1.99218,0 3.58723,-0.70312 4.78516,-2.10937 1.21092,-1.41927 1.81639,-3.30078 1.8164,-5.64454 l 0,-0.80078 -3.57421,0 m 7.16796,-1.48437 0,12.48047 -3.59375,0 0,-3.32032 c -0.82032,1.32813 -1.84246,2.3112 -3.0664,2.94922 -1.22397,0.625 -2.72137,0.9375 -4.49219,0.9375 -2.23959,0 -4.02344,-0.625 -5.35156,-1.875 -1.31511,-1.26301 -1.97266,-2.94921 -1.97266,-5.05859 0,-2.46093 0.82031,-4.3164 2.46094,-5.56641 1.65364,-1.24998 4.11457,-1.87498 7.38281,-1.875 l 5.03906,0 0,-0.35156 c -10e-6,-1.65363 -0.54689,-2.92967 -1.64062,-3.82812 -1.08074,-0.91144 -2.60418,-1.36717 -4.57031,-1.36719 -1.25001,2e-5 -2.46746,0.14976 -3.65235,0.44922 -1.1849,0.29949 -2.32422,0.74871 -3.41797,1.34765 l 0,-3.32031 c 1.3151,-0.50779 2.59114,-0.88539 3.82813,-1.13281 1.23697,-0.2604 2.4414,-0.3906 3.61328,-0.39063 3.16405,3e-5 5.52733,0.82034 7.08984,2.46094 1.56248,1.64064 2.34373,4.12762 2.34375,7.46094" />
    <path
       inkscape:connector-curvature="0"
       id="komma2"
       style="font-size:40px;font-style:normal;font-weight:normal;line-height:125%;letter-spacing:0px;word-spacing:0px;fill:#000000;fill-opacity:1;stroke:none;font-family:Sans"
       d="m 440.18973,193.11554 4.12109,0 0,3.35937 -3.20312,6.25 -2.51953,0 1.60156,-6.25 0,-3.35937">
      <animate attributeName="opacity" begin="0" dur="1s" from="1" to="0" fill="freeze"/>
    </path>
    <path
       inkscape:connector-curvature="0"
       id="b"
       style="font-size:40px;font-style:normal;font-weight:normal;line-height:125%;letter-spacing:0px;word-spacing:0px;fill:#000000;fill-opacity:1;stroke:none;font-family:Sans"
       d="m 480.44363,187.15851 c -2e-5,-2.64322 -0.54689,-4.71353 -1.64062,-6.21094 -1.08075,-1.5104 -2.57163,-2.2656 -4.47266,-2.26562 -1.90105,2e-5 -3.39844,0.75522 -4.49218,2.26562 -1.08074,1.49741 -1.62111,3.56772 -1.6211,6.21094 -10e-6,2.64324 0.54036,4.72006 1.6211,6.23047 1.09374,1.4974 2.59113,2.24609 4.49218,2.24609 1.90103,0 3.39191,-0.74869 4.47266,-2.24609 1.09373,-1.51041 1.6406,-3.58723 1.64062,-6.23047 m -12.22656,-7.63672 c 0.7552,-1.30206 1.70572,-2.2656 2.85156,-2.89063 1.15885,-0.63799 2.53905,-0.957 4.14063,-0.95703 2.65623,3e-5 4.81118,1.05471 6.46484,3.16407 1.66665,2.10939 2.49998,4.88282 2.5,8.32031 -2e-5,3.43751 -0.83335,6.21094 -2.5,8.32031 -1.65366,2.10938 -3.80861,3.16406 -6.46484,3.16406 -1.60158,0 -2.98178,-0.3125 -4.14063,-0.9375 -1.14584,-0.63802 -2.09636,-1.60807 -2.85156,-2.91015 l 0,3.28125 -3.61328,0 0,-30.39063 3.61328,0 0,11.83594" />
    <path
       inkscape:connector-curvature="0"
       id="komma1"
       style="font-size:40px;font-style:normal;font-weight:normal;line-height:125%;letter-spacing:0px;word-spacing:0px;fill:#000000;fill-opacity:1;stroke:none;font-family:Sans"
       d="m 491.0491,193.11554 4.1211,0 0,3.35937 -3.20313,6.25 -2.51953,0 1.60156,-6.25 0,-3.35937">
      <animate attributeName="opacity" begin="0" dur="1s" from="1" to="0" fill="freeze"/>

    </path>
    <g
       id="10">
      <path
         d="m 516.79129,194.75616 6.44531,0 0,-22.24609 -7.01172,1.40625 0,-3.59375 6.97266,-1.40625 3.94531,0 0,25.83984 6.44532,0 0,3.32032 -16.79688,0 0,-3.32032"
         style="font-size:40px;font-style:normal;font-weight:normal;line-height:125%;letter-spacing:0px;word-spacing:0px;fill:#000000;fill-opacity:1;stroke:none;font-family:Sans"
         id="path3024"
         inkscape:connector-curvature="0" />
      <path
         d="m 550.01395,171.51398 c -2.03126,2e-5 -3.56121,1.00263 -4.58985,3.00781 -1.01563,1.99221 -1.52344,4.99351 -1.52343,9.00391 -10e-6,3.9974 0.5078,6.9987 1.52343,9.0039 1.02864,1.99219 2.55859,2.98829 4.58985,2.98828 2.04425,1e-5 3.5742,-0.99609 4.58984,-2.98828 1.02863,-2.0052 1.54295,-5.0065 1.54297,-9.0039 -2e-5,-4.0104 -0.51434,-7.0117 -1.54297,-9.00391 -1.01564,-2.00518 -2.54559,-3.00779 -4.58984,-3.00781 m 0,-3.125 c 3.26821,3e-5 5.7617,1.2956 7.48047,3.88672 1.73174,2.57814 2.59763,6.32814 2.59765,11.25 -2e-5,4.90886 -0.86591,8.65886 -2.59765,11.25 -1.71877,2.57812 -4.21226,3.86718 -7.48047,3.86718 -3.26824,0 -5.76824,-1.28906 -7.5,-3.86718 -1.71876,-2.59114 -2.57813,-6.34114 -2.57813,-11.25 0,-4.92186 0.85937,-8.67186 2.57813,-11.25 1.73176,-2.59112 4.23176,-3.88669 7.5,-3.88672"
         style="font-size:40px;font-style:normal;font-weight:normal;line-height:125%;letter-spacing:0px;word-spacing:0px;fill:#000000;fill-opacity:1;stroke:none;font-family:Sans"
         id="path3026"
         inkscape:connector-curvature="0" />
    </g>
    <path
       inkscape:connector-curvature="0"
       id=")"
       style="font-size:40px;font-style:normal;font-weight:normal;line-height:125%;letter-spacing:0px;word-spacing:0px;fill:#000000;fill-opacity:1;stroke:none;font-family:Sans"
       d="m 565.97098,167.72491 3.125,0 c 1.95311,3.07295 3.41145,6.08076 4.375,9.02344 0.97655,2.94273 1.46483,5.8659 1.46484,8.76953 -1e-5,2.91668 -0.48829,5.85287 -1.46484,8.8086 -0.96355,2.95573 -2.42189,5.96354 -4.375,9.02343 l -3.125,0 c 1.73176,-2.98177 3.02082,-5.94401 3.86719,-8.88671 0.85936,-2.95573 1.28905,-5.93749 1.28906,-8.94532 -1e-5,-3.00779 -0.4297,-5.97654 -1.28906,-8.90625 -0.84637,-2.92966 -2.13543,-5.8919 -3.86719,-8.88672" />
  </g>
</svg>
